#!OML:ASF I:\Actors\actors\Patient Classification 2\Patient 1\Session 1\actor1.ASF
:FULLY-SPECIFIED
:DEGREES
267
root -0.625236 18.8994 4.91249 15.5926 -14.1862 -1.59895
lowerback 27.2367 -2.17151 -12.0521
upperback 4.11581 -7.29489 -8.2425
thorax -10.1105 -3.12173 0.0353971
lowerneck -15.1166 1.88678 -3.72881
upperneck 16.9947 4.00445 -2.99599
head 7.74283 1.34496 0.0605384
rclavicle 7.95139e-014 7.31528e-014
rhumerus 11.0843 -30.9989 -30.5483
rradius 120.098
rwrist -11.4403
rhand -25.9956 -28.9705
rfingers 7.12502
rthumb 0.55 -58.9495
lclavicle 7.95139e-014 7.31528e-014
lhumerus -45.8572 -36.6347 62.6557
lradius 58.504
lwrist 15.9062
lhand -10.6065 -6.54503
lfingers 7.12502
lthumb 15.3995 22.8614
rfemur 0 0 0
rtibia 0
rfoot 0 0
rtoes 0
lfemur -21.4861 5.74665 -13.4667
ltibia 24.3522
lfoot -19.7467 15.5562
ltoes -54.6798
268
root -0.637163 18.9093 4.92164 15.6652 -13.2523 -1.68665
lowerback 27.5359 -1.82312 -11.3972
upperback 4.05574 -6.7336 -8.32649
thorax -10.4648 -2.86873 -0.590314
lowerneck -14.312 1.17178 -4.25726
upperneck 16.9768 2.96682 -2.27161
head 7.57721 0.901566 0.266048
rclavicle -8.42847e-014 -2.8625e-014
rhumerus 15.8031 -31.737 -29.6708
rradius 117.019
rwrist -12.5345
rhand -23.8298 -29.1564
rfingers 7.12502
rthumb 2.64177 -59.1198
lclavicle -8.42847e-014 -2.8625e-014
lhumerus -47.6994 -34.5961 64.2795
lradius 59.6641
lwrist 14.467
lhand -10.025 -5.80853
lfingers 7.12502
lthumb 15.9595 23.554
rfemur 0 0 0
rtibia 0
rfoot 0 0
rtoes 0
lfemur -21.5907 4.82635 -13.1042
ltibia 24.1599
lfoot -19.6085 15.679
ltoes -54.7352
269
root -0.646157 18.9177 4.93846 15.708 -12.3207 -1.84637
lowerback 27.7392 -1.44813 -10.5964
upperback 4.03203 -6.0699 -8.40805
thorax -10.7306 -2.58509 -1.34638
lowerneck -13.2587 0.398318 -4.82666
upperneck 16.9973 1.78863 -1.28207
head 7.39269 0.409412 0.555658
rclavicle 2.54444e-014 -1.27222e-014
rhumerus 20.382 -32.3423 -29.1922
rradius 113.647
rwrist -15.2796
rhand -20.9855 -29.7136
rfingers 7.12502
rthumb 5.38831 -59.6251
lclavicle 2.54444e-014 -1.27222e-014
lhumerus -49.1737 -32.4921 65.7466
lradius 60.4375
lwrist 13.7239
lhand -10.6829 -6.00104
lfingers 7.12502
lthumb 15.3259 23.411
rfemur 0 0 0
rtibia 0
rfoot 0 0
rtoes 0
lfemur -21.6311 3.89076 -12.6774
ltibia 23.9975
lfoot -19.5704 15.7945
ltoes -54.7207
270
root -0.653708 18.9243 4.95876 15.7073 -11.36 -2.07743
lowerback 27.9284 -1.07695 -9.75717
upperback 4.00141 -5.38433 -8.42075
thorax -10.9709 -2.29571 -2.06695
lowerneck -12.0902 -0.313752 -5.39497
upperneck 17.164 0.653381 -0.141475
head 7.25298 -0.0595428 0.906522
rclavicle 1.59028e-014 -3.18055e-015
rhumerus 24.6271 -32.4282 -28.8423
rradius 110.262
rwrist -20.1585
rhand -13.8113 -31.7906
rfingers 7.12502
rthumb 12.311 -61.4082
lclavicle 1.59028e-014 -3.18055e-015
lhumerus -50.4932 -30.2133 67.0829
lradius 61.0629
lwrist 13.8088
lhand -11.4134 -6.43718
lfingers 7.12502
lthumb 14.6222 23.0273
rfemur 0 0 0
rtibia 0
rfoot 0 0
rtoes 0
lfemur -21.6325 3.06051 -12.1922
ltibia 23.8734
lfoot -19.555 15.8158
ltoes -54.7034
271
root -0.661542 18.9293 4.97523 15.7806 -10.2719 -2.29598
lowerback 28.0599 -0.77069 -8.87436
upperback 3.92129 -4.75345 -8.37644
thorax -11.2146 -2.03387 -2.74046
lowerneck -10.9297 -0.957554 -5.83961
upperneck 17.5072 -0.396517 0.873668
head 7.18893 -0.502398 1.21221
rclavicle -6.36111e-015 -7.95139e-014
rhumerus 28.3083 -32.0655 -28.49
rradius 106.982
rwrist -28.1189
rhand -3.35998 -37.0991
rfingers 7.12502
rthumb 22.3685 -65.8242
lclavicle -6.36111e-015 -7.95139e-014
lhumerus -51.7492 -27.9329 68.3194
lradius 61.7519
lwrist 14.5285
lhand -11.6504 -6.47872
lfingers 7.12502
lthumb 14.3939 23.0022
rfemur 0 0 0
rtibia 0
rfoot 0 0
rtoes 0
lfemur -21.8019 2.34544 -11.7126
ltibia 23.7861
lfoot -19.3995 15.6627
ltoes -54.7874
272
root -0.670382 18.9328 4.98755 15.8893 -9.05331 -2.46357
lowerback 28.1534 -0.480761 -7.91748
upperback 3.82278 -4.1146 -8.34174
thorax -11.4464 -1.77564 -3.48156
lowerneck -9.63803 -1.67858 -6.13849
upperneck 17.9518 -1.57935 1.80381
head 7.15405 -1.01387 1.46157
rclavicle -1.27222e-014 -6.99722e-014
rhumerus 31.2159 -31.0619 -27.9505
rradius 102.878
rwrist -36.6746
rhand 4.03329 -40.8868
rfingers 7.12502
rthumb 29.4475 -68.5727
lclavicle -1.27222e-014 -6.99722e-014
lhumerus -52.9429 -25.9777 69.4893
lradius 62.5803
lwrist 15.3445
lhand -11.4602 -6.04357
lfingers 7.12502
lthumb 14.5772 23.4242
rfemur 0 0 0
rtibia 0
rfoot 0 0
rtoes 0
lfemur -22.0916 1.61743 -11.2594
ltibia 23.7269
lfoot -19.1531 15.4117
ltoes -54.9223
273
root -0.680292 18.9366 4.99628 15.9335 -7.76391 -2.61888
lowerback 28.3442 -0.168822 -7.01628
upperback 3.69815 -3.46395 -8.23082
thorax -11.7277 -1.50923 -4.11843
lowerneck -8.39568 -2.40063 -6.41328
upperneck 18.5894 -2.78194 2.77504
head 7.20665 -1.53633 1.72637
rclavicle -3.33958e-014 4.77083e-014
rhumerus 33.7372 -29.7697 -27.2764
rradius 98.3719
rwrist -45.3692
rhand 11.3343 -45.4735
rfingers 7.12502
rthumb 36.3908 -71.693
lclavicle -3.33958e-014 4.77083e-014
lhumerus -54.0423 -24.2485 70.7795
lradius 63.1645
lwrist 15.6113
lhand -11.2308 -5.74468
lfingers 7.12502
lthumb 14.7982 23.707
rfemur 0 0 0
rtibia 0
rfoot 0 0
rtoes 0
lfemur -22.365 0.934528 -10.8119
ltibia 23.6946
lfoot -18.8932 15.0579
ltoes -54.985
274
root -0.691488 18.9423 5.00465 15.9898 -6.44104 -2.76528
lowerback 28.4304 0.124263 -6.28892
upperback 3.60226 -2.84572 -7.96697
thorax -11.8838 -1.24914 -4.46872
lowerneck -7.50136 -3.00255 -6.79627
upperneck 19.4247 -3.79917 3.75584
head 7.39414 -1.97793 2.03204
rclavicle -1.74931e-014 1.59028e-014
rhumerus 35.2846 -27.5377 -25.3793
rradius 93.7382
rwrist -49.8632
rhand 17.0317 -49.0559
rfingers 7.12502
rthumb 41.7605 -73.7257
lclavicle -1.74931e-014 1.59028e-014
lhumerus -54.9491 -22.4418 72.2025
lradius 63.3875
lwrist 15.644
lhand -11.1599 -5.79486
lfingers 7.12502
lthumb 14.8664 23.6518
rfemur 0 0 0
rtibia 0
rfoot 0 0
rtoes 0
lfemur -22.7013 0.343405 -10.3861
ltibia 23.6863
lfoot -18.5647 14.6583
ltoes -55.0973
275
root -0.702913 18.9472 5.01386 16.0678 -5.07121 -2.90972
lowerback 28.3809 0.384958 -5.69025
upperback 3.57217 -2.26809 -7.59831
thorax -11.8725 -1.00021 -4.60267
lowerneck -6.66212 -3.4799 -6.90652
upperneck 20.0705 -4.61498 4.34704
head 7.51706 -2.33492 2.18519
rclavicle 1.27222e-014 1.1291e-013
rhumerus 36.2767 -24.7614 -22.6614
rradius 89.2847
rwrist -52.0199
rhand 20.9957 -52.4158
rfingers 7.12502
rthumb 45.4615 -75.7312
lclavicle 1.27222e-014 1.1291e-013
lhumerus -55.8748 -20.5442 73.6088
lradius 63.7749
lwrist 16.0977
lhand -11.1652 -5.99104
lfingers 7.12502
lthumb 14.8613 23.456
rfemur 0 0 0
rtibia 0
rfoot 0 0
rtoes 0
lfemur -23.1036 -0.230681 -9.9738
ltibia 23.6793
lfoot -18.1572 14.2876
ltoes -55.2886
